<svg width="17" height="10" viewBox="0 0 17 10" fill="none" xmlns="http://www.w3.org/2000/svg">
<path fill-rule="evenodd" clip-rule="evenodd" d="M10.793 0.293031C10.9805 0.10556 11.2348 0.000244141 11.5 0.000244141C11.7652 0.000244141 12.0195 0.10556 12.207 0.293031L16.207 4.29303C16.3945 4.48056 16.4998 4.73487 16.4998 5.00003C16.4998 5.26519 16.3945 5.5195 16.207 5.70703L12.207 9.70703C12.0184 9.88919 11.7658 9.98998 11.5036 9.9877C11.2414 9.98543 10.9906 9.88026 10.8052 9.69485C10.6198 9.50944 10.5146 9.25863 10.5123 8.99643C10.51 8.73423 10.6108 8.48163 10.793 8.29303L13.086 6.00003H1.5C1.23478 6.00003 0.98043 5.89467 0.792893 5.70714C0.605357 5.5196 0.5 5.26525 0.5 5.00003C0.5 4.73481 0.605357 4.48046 0.792893 4.29292C0.98043 4.10539 1.23478 4.00003 1.5 4.00003H13.086L10.793 1.70703C10.6055 1.5195 10.5002 1.26519 10.5002 1.00003C10.5002 0.734866 10.6055 0.480558 10.793 0.293031Z" fill="#5B5B5B"/>
</svg>
